<?xml version="1.0" encoding="UTF-8" standalone="no"?>
<svg
   width="100mm"
   height="100mm"
   viewBox="0 0 100 100"
   version="1.1"
   id="svg40"
   sodipodi:docname="easygrbl.svg"
   inkscape:version="1.2.2 (b0a8486541, 2022-12-01)"
   xmlns:inkscape="http://www.inkscape.org/namespaces/inkscape"
   xmlns:sodipodi="http://sodipodi.sourceforge.net/DTD/sodipodi-0.dtd"
   xmlns="http://www.w3.org/2000/svg"
   xmlns:svg="http://www.w3.org/2000/svg">
  <defs
     id="defs44" />
  <sodipodi:namedview
     id="namedview42"
     pagecolor="#ffffff"
     bordercolor="#000000"
     borderopacity="0.25"
     inkscape:showpageshadow="2"
     inkscape:pageopacity="0.0"
     inkscape:pagecheckerboard="0"
     inkscape:deskcolor="#d1d1d1"
     inkscape:document-units="mm"
     showgrid="false"
     inkscape:zoom="2.4976667"
     inkscape:cx="171.35993"
     inkscape:cy="137.72854"
     inkscape:window-width="2560"
     inkscape:window-height="1540"
     inkscape:window-x="0"
     inkscape:window-y="0"
     inkscape:window-maximized="1"
     inkscape:current-layer="layer1" />
  <!-- Background -->
  <!-- Outer square frame -->
  <!-- Inner dashed square -->
  <!-- Center circle -->
  <!-- Inner circle -->
  <!-- Crosshair -->
  <!-- Diagonal lines -->
  <!-- Text: EasyGRBL -->
  <g
     aria-label="EasyGRBL"
     id="text20"
     style="font-weight:bold;font-size:12.8536px;font-family:Arial, Helvetica, sans-serif;text-anchor:middle;display:inline;stroke-width:1.6067"
     inkscape:label="Label">
    <path
       d="M 63.987794,14.870019 V 6.0268931 h 1.851471 v 7.4121589 h 4.744785 v 1.430967 z"
       id="path193"
       style="display:inline"
       inkscape:label="08-L" />
    <path
       d="m 62.544273,12.346998 q 0,1.205025 -0.903769,1.864023 -0.903768,0.658998 -2.510468,0.658998 H 54.705335 V 6.0268931 h 4.04813 q 1.619253,0 2.447707,0.5648554 0.834731,0.5585793 0.834731,1.6569094 0,0.7531406 -0.420503,1.2740628 -0.414228,0.5146463 -1.267787,0.6966553 1.073225,0.125523 1.631805,0.677826 0.564855,0.546027 0.564855,1.449796 z M 60.17188,8.4997047 q 0,-0.5962363 -0.382846,-0.8472831 -0.376571,-0.2510469 -1.123435,-0.2510469 h -2.108794 v 2.1903839 h 2.121346 q 0.784522,0 1.135987,-0.2698754 0.357742,-0.2761515 0.357742,-0.8221785 z m 0.514646,3.7029413 q 0,-1.242682 -1.782433,-1.242682 h -2.347288 v 2.535573 h 2.416326 q 0.891217,0 1.299168,-0.320084 0.414227,-0.326361 0.414227,-0.972807 z"
       id="path191"
       style="font-weight:bold;font-size:12.8536px;font-family:Arial, Helvetica, sans-serif;text-anchor:middle;display:inline;stroke-width:1.6067"
       inkscape:label="07-B" />
    <path
       d="m 51.49821,14.870019 -2.052309,-3.357752 h -2.171555 v 3.357752 H 45.422875 V 6.0268931 H 49.8413 q 1.581595,0 2.441431,0.6841027 0.859836,0.6778265 0.859836,1.9518894 0,0.9288734 -0.527199,1.6066998 -0.527198,0.671551 -1.424691,0.88494 l 2.391222,3.715494 z M 51.278544,8.7381993 q 0,-1.2740629 -1.631805,-1.2740629 h -2.372393 v 2.6108876 h 2.422602 q 0.778246,0 1.179921,-0.3514658 0.401675,-0.3514656 0.401675,-0.9853589 z"
       id="path189"
       style="font-weight:bold;font-size:12.8536px;font-family:Arial, Helvetica, sans-serif;text-anchor:middle;display:inline;stroke-width:1.6067"
       inkscape:label="06-R" />
    <path
       d="m 39.623694,13.545747 q 0.72176,0 1.399586,-0.207114 0.677827,-0.21339 1.048121,-0.539751 v -1.223853 h -2.159003 v -1.368206 h 3.853569 v 3.251057 q -0.702931,0.72176 -1.832642,1.129711 -1.123434,0.407951 -2.35984,0.407951 -2.159003,0 -3.320095,-1.192472 -1.161092,-1.198749 -1.161092,-3.395409 0,-2.1841078 1.167368,-3.3451996 1.167368,-1.1673679 3.357752,-1.1673679 3.112981,0 3.960264,2.303355 L 41.870564,8.7130946 Q 41.594412,8.0415442 41.004452,7.6963548 40.414492,7.3511653 39.617418,7.3511653 q -1.305444,0 -1.98327,0.7907976 -0.677827,0.7907977 -0.677827,2.2656981 0,1.500005 0.696655,2.322183 0.702931,0.815903 1.970718,0.815903 z"
       id="path187"
       style="font-weight:bold;font-size:12.8536px;font-family:Arial, Helvetica, sans-serif;text-anchor:middle;display:inline;stroke-width:1.6067"
       inkscape:label="05-G" />
    <path
       d="m 29.192697,17.537392 q -0.633894,0 -1.110883,-0.08159 v -1.255235 q 0.332638,0.05021 0.608789,0.05021 0.37657,0 0.621341,-0.119248 0.251047,-0.119247 0.445608,-0.395398 0.200838,-0.276152 0.445608,-0.93515 L 27.516959,8.0792012 h 1.864023 l 1.066949,3.1820188 q 0.251047,0.684103 0.633893,2.096242 l 0.156905,-0.596237 0.407951,-1.4749 1.004187,-3.2071238 h 1.845195 L 31.80986,15.227761 q -0.53975,1.305443 -1.123434,1.807537 -0.577408,0.502094 -1.493729,0.502094 z"
       id="path185"
       style="font-weight:bold;font-size:12.8536px;font-family:Arial, Helvetica, sans-serif;text-anchor:middle;display:inline;stroke-width:1.6067"
       inkscape:label="04-y" />
    <path
       d="m 26.889343,12.886749 q 0,0.985359 -0.809626,1.550214 -0.80335,0.558579 -2.228041,0.558579 -1.399587,0 -2.146451,-0.439332 -0.740588,-0.445608 -0.985359,-1.380757 l 1.550214,-0.232219 q 0.1318,0.483265 0.451885,0.684103 0.326361,0.200837 1.129711,0.200837 0.740588,0 1.079501,-0.188285 0.338913,-0.188285 0.338913,-0.58996 0,-0.326361 -0.276151,-0.514646 -0.269876,-0.194561 -0.922597,-0.326361 -1.493729,-0.29498 -2.014651,-0.546027 -0.520923,-0.257323 -0.797074,-0.658998 -0.269876,-0.407951 -0.269876,-0.997911 0,-0.9728067 0.746865,-1.5125574 0.75314,-0.546027 2.127622,-0.546027 1.211301,0 1.945613,0.4707129 0.740588,0.4707129 0.922597,1.3619292 l -1.562766,0.1631805 q -0.07531,-0.4142273 -0.370294,-0.6150648 -0.294981,-0.2071137 -0.93515,-0.2071137 -0.627617,0 -0.941426,0.1631805 -0.313808,0.1569043 -0.313808,0.5334746 0,0.2949802 0.238494,0.4707132 0.244771,0.169456 0.815902,0.282427 0.797074,0.163181 1.412139,0.338914 0.621341,0.169456 0.991635,0.407951 0.376571,0.238494 0.596237,0.615065 0.225942,0.370294 0.225942,0.953978 z"
       id="path183"
       style="font-weight:bold;font-size:12.8536px;font-family:Arial, Helvetica, sans-serif;text-anchor:middle;display:inline;stroke-width:1.6067"
       inkscape:label="03-s" />
    <path
       d="m 15.585958,14.995542 q -0.985359,0 -1.537663,-0.533474 -0.552303,-0.539751 -0.552303,-1.512558 0,-1.054396 0.684103,-1.6067 0.690379,-0.552303 1.995823,-0.564855 l 1.462348,-0.0251 v -0.345189 q 0,-0.6652743 -0.232219,-0.985359 -0.232218,-0.326361 -0.759416,-0.326361 -0.489542,0 -0.72176,0.2259422 -0.225942,0.219666 -0.282428,0.7343118 L 13.803525,9.968334 q 0.169456,-0.9916351 0.903768,-1.500005 0.740589,-0.5146461 2.014652,-0.5146461 1.286615,0 1.98327,0.6338933 0.696655,0.6338934 0.696655,1.8012608 v 2.472812 q 0,0.571132 0.125523,0.790798 0.1318,0.213389 0.433056,0.213389 0.200838,0 0.389123,-0.03766 v 0.953979 q -0.156905,0.03766 -0.282428,0.06904 -0.125523,0.03138 -0.251047,0.05021 -0.125523,0.01883 -0.269875,0.03138 -0.138076,0.01255 -0.326361,0.01255 -0.665274,0 -0.985359,-0.326361 -0.313809,-0.326361 -0.37657,-0.960254 h -0.03766 q -0.740589,1.336824 -2.234317,1.336824 z m 2.052308,-3.269885 -0.903769,0.01255 q -0.615065,0.0251 -0.872388,0.138076 -0.257323,0.106695 -0.395399,0.332637 -0.131799,0.225942 -0.131799,0.602513 0,0.483265 0.219666,0.721759 0.225942,0.232219 0.596236,0.232219 0.414227,0 0.753141,-0.225942 0.345189,-0.225943 0.53975,-0.621341 0.194562,-0.401675 0.194562,-0.847284 z"
       id="path181"
       style="font-weight:bold;font-size:12.8536px;font-family:Arial, Helvetica, sans-serif;text-anchor:middle;display:inline;stroke-width:1.6067"
       inkscape:label="02-a" />
    <path
       d="M 5.4060068,14.870019 V 6.0268931 H 12.360005 V 7.4578602 H 7.2574774 V 9.679625 h 4.7196816 v 1.430967 H 7.2574774 v 2.32846 h 5.3598506 v 1.430967 z"
       id="path179"
       style="font-weight:bold;font-size:12.8536px;font-family:Arial, Helvetica, sans-serif;text-anchor:middle;display:inline;stroke-width:1.6067"
       inkscape:label="01-E" />
  </g>
  <!-- Text: 100 x 100 mm -->
  <!-- Corner marks -->
  <g
     inkscape:groupmode="layer"
     id="layer1"
     inkscape:label="Corners"
     style="display:inline">
    <line
       x1="2"
       y1="93"
       x2="2"
       y2="98"
       stroke="#000000"
       stroke-width="0.5"
       id="line32"
       style="display:inline;stroke-width:0.8;stroke-dasharray:none"
       inkscape:label="Bottom-Left-V" />
    <line
       x1="2"
       y1="98"
       x2="7"
       y2="98"
       stroke="#000000"
       stroke-width="0.5"
       id="line34"
       style="display:inline;stroke-width:0.8;stroke-dasharray:none"
       inkscape:label="Bottom-Left-H" />
    <line
       x1="93"
       y1="98"
       x2="98"
       y2="98"
       stroke="#000000"
       stroke-width="0.5"
       id="line38"
       style="display:inline;stroke-width:0.8;stroke-dasharray:none"
       inkscape:label="Bottom-Right-H" />
    <line
       x1="98"
       y1="93"
       x2="98"
       y2="98"
       stroke="#000000"
       stroke-width="0.5"
       id="line36"
       style="display:inline;stroke-width:0.8;stroke-dasharray:none"
       inkscape:label="Bottom-Right-V" />
    <line
       x1="98"
       y1="7"
       x2="98"
       y2="2"
       stroke="#000000"
       stroke-width="0.5"
       id="line28"
       style="display:inline;stroke-width:0.8;stroke-dasharray:none"
       inkscape:label="Top-Right-V" />
    <line
       x1="93"
       y1="2"
       x2="98"
       y2="2"
       stroke="#000000"
       stroke-width="0.5"
       id="line30"
       style="display:inline;stroke-width:0.8;stroke-dasharray:none"
       inkscape:label="Top-Right-H" />
    <line
       x1="2"
       y1="2"
       x2="7"
       y2="2"
       stroke="#000000"
       stroke-width="0.5"
       id="line26"
       style="display:inline;stroke-width:0.8;stroke-dasharray:none"
       inkscape:label="Top-Left-H" />
    <line
       x1="2"
       y1="7"
       x2="2"
       y2="2"
       stroke="#000000"
       stroke-width="0.5"
       id="line24"
       style="display:inline;stroke-width:0.8;stroke-dasharray:none"
       inkscape:label="Top-Levt-V" />
  </g>
  <g
     inkscape:groupmode="layer"
     id="layer2"
     inkscape:label="Graphic"
     style="display:inline">
    <line
       x1="49.782181"
       y1="28.101049"
       x2="49.782181"
       y2="90"
       stroke="#000000"
       stroke-width="0.175925"
       id="line12"
       style="display:inline"
       inkscape:label="line3" />
    <line
       x1="10"
       y1="50"
       x2="90"
       y2="50"
       stroke="#000000"
       stroke-width="0.2"
       id="line14"
       style="display:inline"
       inkscape:label="line2" />
    <line
       x1="90"
       y1="10"
       x2="10"
       y2="90"
       stroke="#999999"
       stroke-width="0.2"
       id="line18"
       style="display:inline"
       inkscape:label="line1" />
    <circle
       cx="50"
       cy="50"
       r="30"
       fill="none"
       stroke="#000000"
       stroke-width="0.5"
       id="circle8"
       style="display:inline"
       inkscape:label="circle2" />
    <circle
       cx="50"
       cy="50"
       r="15"
       fill="none"
       stroke="#000000"
       stroke-width="0.3"
       id="circle10"
       style="display:inline"
       inkscape:label="circle1" />
  </g>
  <g
     inkscape:groupmode="layer"
     id="layer3"
     inkscape:label="Frame"
     style="display:inline">
    <rect
       x="0"
       y="0"
       width="100"
       height="100"
       fill="#ffffff"
       id="rect2"
       style="display:inline;fill:none;stroke:#000000;stroke-width:0.3;stroke-dasharray:none"
       inkscape:label="main" />
    <rect
       x="2"
       y="2"
       width="96"
       height="96"
       fill="none"
       stroke="#000000"
       stroke-width="0.5"
       id="rect4"
       style="display:inline;fill:none;stroke-width:0.3;stroke-dasharray:none"
       inkscape:label="margin" />
  </g>
</svg>
